<svg width="55" height="48" viewBox="0 0 55 48" fill="none" xmlns="http://www.w3.org/2000/svg">
<path d="M54.2146 23.6788C54.2146 25.3469 52.8022 26.6537 51.2016 26.6537H48.1886L48.2545 41.5004C48.2545 41.7506 48.2357 42.0008 48.2075 42.2511V43.7431C48.2075 45.7913 46.5221 47.4502 44.4413 47.4502H42.9348C42.8312 47.4502 42.7276 47.4502 42.6241 47.4409C42.4922 47.4502 42.3604 47.4502 42.2286 47.4502H39.1686H36.9088C34.828 47.4502 33.1426 45.7913 33.1426 43.7431V41.5189V35.5876C33.1426 33.9473 31.7962 32.622 30.1297 32.622H24.1037C22.4372 32.622 21.0908 33.9473 21.0908 35.5876V41.5189V43.7431C21.0908 45.7913 19.4054 47.4502 17.3246 47.4502H15.0648H12.0613C11.92 47.4502 11.7788 47.4409 11.6376 47.4316C11.5246 47.4409 11.4116 47.4502 11.2986 47.4502H9.79214C7.71131 47.4502 6.02593 45.7913 6.02593 43.7431V33.3634C6.02593 33.28 6.02593 33.1873 6.03535 33.1039V26.6537H3.01297C1.31817 26.6537 0 25.3562 0 23.6788C0 22.8447 0.282466 22.1033 0.941552 21.4545L25.0829 0.741409C25.742 0.0926761 26.4953 0 27.1544 0C27.8134 0 28.5667 0.185352 29.1316 0.648733L53.1789 21.4545C53.9321 22.1033 54.3087 22.8447 54.2146 23.6788Z" fill="#DEC7FF"/>
</svg>
